<svg xmlns="http://www.w3.org/2000/svg" width="22" height="22" baseProfile="tiny" version="1.2" viewBox="0 0 22 22"><g><g id="content"><line id="line7" x1="18.5" x2="18.5" y1="4" y2="19" fill="none" stroke="#008b8b"/><g id="label2"><text x="5" y="17.636" fill="#008b8b" font-family="'Futura Medium', 'Futura'" font-size="19">#</text></g><polygon id="polygon3" fill="#000" stroke="#fff" points="55 47 60 58 56.5 57 56.5 62 53.5 62 53.5 57 50 58" transform="translate(-44,-44), matrix(0.9238795325112868,-0.38268343236508956,0.38268343236508956,0.9238795325112868,-12.669621352018158,47.19615425821479)"/><polygon id="polygon8" fill="gray" stroke="gray" stroke-alignment="inner" points="22 10 27 14 27 12 30 12 30 15 28 15 32 20 36 15 34 15 34 12 37 12 37 14 42 10 37 6 37 8 34 8 34 5 36 5 32 0 28 5 30 5 30 8 27 8 27 6"/></g></g></svg>