<svg xmlns="http://www.w3.org/2000/svg" width="22" height="22" baseProfile="tiny" version="1.2" viewBox="0 0 22 22"><g><g id="content"><g id="group2" transform="translate(-66,-44), matrix(0.9238795325112867,0.3826834323650898,-0.3826834323650898,0.9238795325112867,34.4535839081225,-21.18252353445002)"><ellipse id="ellipse4" cx="75" cy="67" fill="#fff" stroke="#000" rx="2" ry="2"/></g><polygon id="polygon8" fill="gray" stroke="gray" stroke-alignment="inner" points="0 10 5 14 5 12 8 12 8 15 6 15 10 20 14 15 12 15 12 12 15 12 15 14 20 10 15 6 15 8 12 8 12 5 14 5 10 0 6 5 8 5 8 8 5 8 5 6"/><polygon id="polygon4" fill="#000" stroke="#fff" points="76.75 50 80.5 58.5 78 58 78 62 75.5 62 75.5 58 73 58.5" transform="translate(-66,-44), matrix(0.9238795325112868,-0.38268343236508956,0.38268343236508956,0.9238795325112868,-9.08802633268628,37.63369961338856)"/></g></g></svg>