<svg xmlns="http://www.w3.org/2000/svg" width="22" height="22" baseProfile="tiny" version="1.2" viewBox="0 0 22 22"><g><g id="content"><polygon id="polygon5" fill="#000" stroke="#fff" points="76.75 50 80.5 58.5 78 58 78 62 75.5 62 75.5 58 73 58.5" transform="translate(-88,-66), matrix(0.9238795325112868,-0.38268343236508956,0.38268343236508956,0.9238795325112868,-9.08802633268628,59.63369961338856)"/><polygon id="polygon10" fill="#000" stroke="#fff" points="76.75 50 80.5 58.5 78 58 78 62 75.5 62 75.5 58 73 58.5" transform="translate(-88,-66), matrix(0.9238795325112868,-0.38268343236508956,0.38268343236508956,0.9238795325112868,12.91197366731372,58.63369961338856)"/><polyline id="polyline5" fill="none" stroke="gray" stroke-width="2" points="4 2 10.5 7.5 4.5 14.5 10 20"/><rect id="rectangle5" width="5" height="5" x="2" y="12" fill="#fff" stroke="#000" stroke-alignment="inner"/><rect id="rectangle11" width="5" height="5" x="8" y="5" fill="#fff" stroke="#000" stroke-alignment="inner"/><polygon id="polygon14" fill="#000" stroke="#fff" points="76.75 50 80.5 58.5 78 58 78 62 75.5 62 75.5 58 73 58.5" transform="translate(-88,-66), matrix(0.9238795325112868,-0.38268343236508956,0.38268343236508956,0.9238795325112868,12.91197366731372,37.63369961338856)"/></g></g></svg>