<svg xmlns="http://www.w3.org/2000/svg" width="22" height="22" baseProfile="tiny" version="1.2" viewBox="0 0 22 22"><g><g id="content"><rect id="rectangle12" width="19" height="16" x="2" y="2" fill="none" stroke="gray" stroke-alignment="inner"/><rect id="rectangle9" width="14" height="11" x="2" y="2" fill="none" stroke="gray" stroke-alignment="inner" stroke-width="2"/><polygon id="polygon4" fill="#000" stroke="#fff" points="76.75 50 80.5 58.5 78 58 78 62 75.5 62 75.5 58 73 58.5" transform="translate(-88,-44), matrix(0.9238795325112868,-0.38268343236508956,0.38268343236508956,0.9238795325112868,-9.08802633268628,37.63369961338856)"/><polygon id="polygon9" fill="#fff" stroke="#000" stroke-alignment="inner" points="1 1 1 6 4 6 6 6 6 4 6 1"/><polygon id="polygon11" fill="#fff" stroke="#000" stroke-alignment="inner" points="12 1 17 1 17 6 14 6 12 6 12 4"/><polygon id="polygon12" fill="#fff" stroke="#000" stroke-alignment="inner" points="1 9 4 9 6 9 6 11 6 14 1 14"/><polygon id="polygon13" fill="#fff" stroke="#000" stroke-alignment="inner" points="12 11 12 9 14 9 17 9 17 14 12 14"/><polygon id="polygon14" fill="#000" stroke="#fff" points="76.75 50 80.5 58.5 78 58 78 62 75.5 62 75.5 58 73 58.5" transform="translate(-88,-44), matrix(0.9238795325112868,-0.38268343236508956,0.38268343236508956,0.9238795325112868,12.91197366731372,37.63369961338856)"/></g></g></svg>