<svg xmlns="http://www.w3.org/2000/svg" width="22" height="22" baseProfile="tiny" version="1.2" viewBox="0 0 22 22"><g><g id="content"><rect id="rectangle24" width="14" height="10" x="2" y="6" fill="none" stroke="gray" stroke-alignment="inner"/><polygon id="polygon3" fill="#000" stroke="#fff" points="55 47 60 58 56.5 57 56.5 62 53.5 62 53.5 57 50 58" transform="translate(-66,-66), matrix(0.9238795325112868,-0.38268343236508956,0.38268343236508956,0.9238795325112868,-12.669621352018158,47.19615425821479)"/><g id="group2" transform="translate(-66,-66), matrix(0.9238795325112867,0.3826834323650898,-0.3826834323650898,0.9238795325112867,34.4535839081225,-21.18252353445002)"><rect id="rectangle8" width="14" height="10" x="68" y="68" fill="none" stroke="gray" stroke-alignment="inner" stroke-width="2" transform="translate(0,2)"/><line id="line12" x1="75" x2="75" y1="70" y2="69" fill="none" stroke="#000"/><ellipse id="ellipse4" cx="75" cy="67" fill="#fff" stroke="#000" rx="2" ry="2"/></g><polygon id="polygon5" fill="#000" stroke="#fff" points="76.75 50 80.5 58.5 78 58 78 62 75.5 62 75.5 58 73 58.5" transform="translate(-66,-66), matrix(0.9238795325112868,-0.38268343236508956,0.38268343236508956,0.9238795325112868,-9.08802633268628,59.63369961338856)"/><polygon id="polygon4" fill="#000" stroke="#fff" points="76.75 50 80.5 58.5 78 58 78 62 75.5 62 75.5 58 73 58.5" transform="translate(-66,-66), matrix(0.9238795325112868,-0.38268343236508956,0.38268343236508956,0.9238795325112868,-9.08802633268628,37.63369961338856)"/></g></g></svg>